<svg version="1.1" xmlns="http://www.w3.org/2000/svg" xmlns:xlink="http://www.w3.org/1999/xlink" x="0px" y="0px" width="17" height="17" viewBox="0 0 17 17" xml:space="preserve">
<path d="M 13.6 5.1 h 0 a 1.8 1.8 0 0 0 0 -0.5 a 2.3 2.3 0 0 0 -2.3 -2.3 a 2.4 2.4 0 0 0 -1.8 0.8 A 3.3 3.3 0 0 0 3.3 4.7 a 3.2 3.2 0 0 0 0.1 0.6 a 2.8 2.8 0 0 0 0.9 5.5 h 9.3 a 2.8 2.8 0 0 0 0 -5.6 Z M 4 12.3 C 3.6 13.6 2.8 14 2.8 14.9 a 1.4 1.4 0 0 0 1.4 1.5 h 0 a 1.4 1.4 0 0 0 1.4 -1.5 h 0 c 0 -0.9 -0.8 -1.3 -1.2 -2.6 a 0.2 0.2 0 0 0 -0.3 -0.2 h 0 A 0.2 0.2 0 0 0 4 12.3 Z m 4.7 0 C 8.3 13.6 7.5 14 7.5 14.9 a 1.4 1.4 0 0 0 2.8 0.3 a 1.3 1.3 0 0 0 0 -0.2 v -0.1 c 0 -0.9 -0.8 -1.3 -1.2 -2.6 a 0.2 0.2 0 0 0 -0.3 -0.2 h 0 a 0.2 0.2 0 0 0 -0.2 0.2 Z m 4.7 0 C 13 13.6 12.2 14 12.2 14.9 A 1.4 1.4 0 1 0 15 15 v -0.1 c 0 -0.9 -0.8 -1.3 -1.2 -2.6 a 0.3 0.3 0 0 0 -0.3 -0.2 h 0 A 0.3 0.3 0 0 0 13.3 12.3 Z" fill="#4D680F"></path>
</svg>