<svg version="1.1" xmlns="http://www.w3.org/2000/svg" xmlns:xlink="http://www.w3.org/1999/xlink" x="0px" y="0px" width="17" height="17" viewBox="0 0 17 17" xml:space="preserve"><path d="M12.22,4.63a3.32,3.32,0,0,0-6.63,0V9.56a4.26,4.26,0,1,0,6.63,0Zm-3.31,10a2.36,2.36,0,0,1-2.37-2.36,2.33,2.33,0,0,1,.94-1.9V4.63a1.43,1.43,0,0,1,2.85,0v5.69a2.37,2.37,0,0,1-1.42,4.26Zm.47-3.71v-.57A.47.47,0,0,0,9,9.8a.49.49,0,0,0-.52.43v.64a1.42,1.42,0,1,0,1.82.87,1.47,1.47,0,0,0-.87-.87Z" fill="#4D680F"></path></svg>