<svg xmlns="http://www.w3.org/2000/svg" 
        version="1.1" 
        width="185mm" 
        height="150mm" 
        style="fill-rule: evenodd; shape-rendering: geometricPrecision; text-rendering: geometricPrecision; image-rendering: optimizeQuality; clip-rule: evenodd" 
        viewBox="0 0 18500 15000">
        <defs>
            <style>
                #deco path {
                    fill: #9fa115; 
                    stroke: none;
                }
                .vgz-group polygon {
                    cursor: pointer;
                    fill: #fcfaed;
                }
                .vgz-group:hover polygon {
                    cursor: pointer;
                    fill: #EFAD8A;
                }
            </style>
        </defs>
        <rect x="0" y="0" width="147.4%" height="469.6%" fill="#ffffff" />
    <g>
        <g transform="matrix(0.8,0,0,1,1214,0)" id="garden" class="vgz-group">
            <polygon style="stroke: none" points="12194,1144 9691,459 9612,6335 12563,6388 12589,3437 12010,2673 12036,2014 12141,1434"/>
            <polygon style="stroke: none" points="7161,2594 8953,3806 5844,7969 4078,10920 3446,12106 3130,12949 2971,14583 2971,15114 6766,14767 6871,11948 8795,11895 8795,11026 9401,11026 9348,275 8294,11"/>
        </g>
        <g transform="matrix(0.8,0,0,1,2052.1,0)" id="sauna" class="vgz-group">
            <polygon style="stroke: none" points="8571.4,6434 11471.4,6492 11468.4,7440 14521.4,7501 14528.4,11579 15371.4,11526 15371.4,12785 14225.4,12765 14185.4,11526 8863.4,11579 8863.4,11875 7842.4,11894 7831.4,11198 8619.4,11164 8546.4,7574"/>
        </g>
        <g transform="matrix(0.8,0,0,1,2817.6,0)" id="herbadea" class="vgz-group">
            <polygon style="stroke: none" points="14514.9,11447 14495.9,12508 15687.9,12501 15661.9,11460"/>
        </g>
        <g transform="matrix(0.8,0,0,1,1774.5,0)" id="hauses" class="vgz-group">
            <polygon style="stroke: none" points="6236.4,12014 9305.4,11928 9305.4,11681 14483.4,11645 14523.4,14096 11934.4,14102 10524.4,14260 8917.4,14458 6148.4,14759"/>
        </g>
        <g transform="matrix(0.8,0,0,1,2830.7,0)" id="wiese" class="vgz-group">
            <polygon style="stroke: none" points="18267.7,8338 19373.7,14188 19637.7,14899 18108.7,14557 16896.7,14240 15500.7,14161 13840.7,14082 13326.7,14089 13316.7,12843 14538.7,12837 14549.7,12572 15730.7,12561 15717.7,11395 13741.7,11355 13714.7,7410 10664.7,7337 10678.7,3503 12522.7,4886 13787.7,5756 15605.7,7126 17054.7,7969"/>
        </g>
    </g>
    <g id="deco">
        <g id="deco1" transform="translate(1700,1000) scale(20,20)">
            <path d="M 48 5 L 43 41 L 13 24 L 11 29 L 31 41 L 8 33 L 5 40 L 34 48 L 10 73 L 18 76 L 30 61 L 26 81 L 32 83 L 43 55 L 63 90 C 69.5 84.2 59.7 74.4 57 68 C 64 73 69 85.5 78 78 L 78 77 L 52 57 L 89 55 C 86.6 44.1 72.8 50.1 64 48 L 64 46 L 85 40 L 83 33 L 53 46 L 76 14 L 64 10 L 51 33 L 56 7 L 48 5 z"/>
            <path d="M 30.5 20 C 25.7 23.6 31.8 30.8 36.7 27.1 C 42.2 23 35.5 16.3 30.5 20 z"/>
            <path d="M 78.3 20.9 C 73.9 22.5 77.2 29.3 81.7 27.2 C 85.9 25.3 82.2 19.4 78.3 20.9 z"/>
            <path d="M 11.4 49 C 6 52.8 12.5 60.5 17.7 56.3 C 22.8 52.1 16.3 45.7 11.4 49 z"/>
            <path d="M 79.3 61 C 74.4 64.2 80.2 70 84.6 67 C 89 63.8 83.4 58.4 79.3 61 z"/>
            <path d="M 40.4 74 C 35.4 77.5 40.4 85 45.8 81.8 C 51.7 78.3 45.9 70.3 40.4 74 z"/>
        </g>        
        <g id="deco2" transform="translate(300,12500) scale(23,23)">
            <path d="M 48 5 L 43 41 L 13 24 L 11 29 L 31 41 L 8 33 L 5 40 L 34 48 L 10 73 L 18 76 L 30 61 L 26 81 L 32 83 L 43 55 L 63 90 C 69.5 84.2 59.7 74.4 57 68 C 64 73 69 85.5 78 78 L 78 77 L 52 57 L 89 55 C 86.6 44.1 72.8 50.1 64 48 L 64 46 L 85 40 L 83 33 L 53 46 L 76 14 L 64 10 L 51 33 L 56 7 L 48 5 z"/>
            <path d="M 30.5 20 C 25.7 23.6 31.8 30.8 36.7 27.1 C 42.2 23 35.5 16.3 30.5 20 z"/>
            <path d="M 78.3 20.9 C 73.9 22.5 77.2 29.3 81.7 27.2 C 85.9 25.3 82.2 19.4 78.3 20.9 z"/>
            <path d="M 11.4 49 C 6 52.8 12.5 60.5 17.7 56.3 C 22.8 52.1 16.3 45.7 11.4 49 z"/>
            <path d="M 79.3 61 C 74.4 64.2 80.2 70 84.6 67 C 89 63.8 83.4 58.4 79.3 61 z"/>
            <path d="M 40.4 74 C 35.4 77.5 40.4 85 45.8 81.8 C 51.7 78.3 45.9 70.3 40.4 74 z"/>
        </g>        
        <g id="deco3" transform="translate(15000,7500) scale(21,21)">
            <path d="M 48 5 L 43 41 L 13 24 L 11 29 L 31 41 L 8 33 L 5 40 L 34 48 L 10 73 L 18 76 L 30 61 L 26 81 L 32 83 L 43 55 L 63 90 C 69.5 84.2 59.7 74.4 57 68 C 64 73 69 85.5 78 78 L 78 77 L 52 57 L 89 55 C 86.6 44.1 72.8 50.1 64 48 L 64 46 L 85 40 L 83 33 L 53 46 L 76 14 L 64 10 L 51 33 L 56 7 L 48 5 z"/>
            <path d="M 30.5 20 C 25.7 23.6 31.8 30.8 36.7 27.1 C 42.2 23 35.5 16.3 30.5 20 z"/>
            <path d="M 78.3 20.9 C 73.9 22.5 77.2 29.3 81.7 27.2 C 85.9 25.3 82.2 19.4 78.3 20.9 z"/>
            <path d="M 11.4 49 C 6 52.8 12.5 60.5 17.7 56.3 C 22.8 52.1 16.3 45.7 11.4 49 z"/>
            <path d="M 79.3 61 C 74.4 64.2 80.2 70 84.6 67 C 89 63.8 83.4 58.4 79.3 61 z"/>
            <path d="M 40.4 74 C 35.4 77.5 40.4 85 45.8 81.8 C 51.7 78.3 45.9 70.3 40.4 74 z"/>
        </g>
    </g>
<path d="M 8000 0 c -2000 0 -1500 1500 -4500 9000"
 style="fill: none; stroke: red; stroke-width: 25px" />


</svg>     