<?xml version="1.0" standalone="yes"?>
<svg xmlns="http://www.w3.org/2000/svg" width="500" height="500">
    <g>
        <path style="fill: #fcfaed; stroke: none" d="M 0 0 L 0 500 L 500 500 L 500 0 L 0 0 z"/>
    </g>
    <g>
        <path style="fill: #9fa115; stroke: none" d="M 48 5 L 43 41 L 13 24 L 11 29 L 31 41 L 8 33 L 5 40 L 34 48 L 10 73 L 18 76 L 30 61 L 26 81 L 32 83 L 43 55 L 63 90 C 69.5 84.2 59.7 74.4 57 68 C 64 73 69 85.5 78 78 L 78 77 L 52 57 L 89 55 C 86.6 44.1 72.8 50.1 64 48 L 64 46 L 85 40 L 83 33 L 53 46 L 76 14 L 64 10 L 51 33 L 56 7 L 48 5 z"/>
        <path style="fill: #9fa115; stroke: none" d="M 30.5 20 C 25.7 23.6 31.8 30.8 36.7 27.1 C 42.2 23 35.5 16.3 30.5 20 z"/>
        <path style="fill: #9fa115; stroke: none" d="M 78.3 20.9 C 73.9 22.5 77.2 29.3 81.7 27.2 C 85.9 25.3 82.2 19.4 78.3 20.9 z"/>
        <path style="fill: #9fa115; stroke: none" d="M 11.4 49 C 6 52.8 12.5 60.5 17.7 56.3 C 22.8 52.1 16.3 45.7 11.4 49 z"/>
        <path style="fill: #9fa115; stroke: none" d="M 79.3 61 C 74.4 64.2 80.2 70 84.6 67 C 89 63.8 83.4 58.4 79.3 61 z"/>
        <path style="fill: #9fa115; stroke: none" d="M 40.4 74 C 35.4 77.5 40.4 85 45.8 81.8 C 51.7 78.3 45.9 70.3 40.4 74 z"/>
    </g>
    <g transform="translate(30,360) scale(1.3 1.3)">
        <path style="fill: #9fa115; stroke: none" d="M 48 5 L 43 41 L 13 24 L 11 29 L 31 41 L 8 33 L 5 40 L 34 48 L 10 73 L 18 76 L 30 61 L 26 81 L 32 83 L 43 55 L 63 90 C 69.5 84.2 59.7 74.4 57 68 C 64 73 69 85.5 78 78 L 78 77 L 52 57 L 89 55 C 86.6 44.1 72.8 50.1 64 48 L 64 46 L 85 40 L 83 33 L 53 46 L 76 14 L 64 10 L 51 33 L 56 7 L 48 5 z"/>
        <path style="fill: #9fa115; stroke: none" d="M 30.5 20 C 25.7 23.6 31.8 30.8 36.7 27.1 C 42.2 23 35.5 16.3 30.5 20 z"/>
        <path style="fill: #9fa115; stroke: none" d="M 78.3 20.9 C 73.9 22.5 77.2 29.3 81.7 27.2 C 85.9 25.3 82.2 19.4 78.3 20.9 z"/>
        <path style="fill: #9fa115; stroke: none" d="M 11.4 49 C 6 52.8 12.5 60.5 17.7 56.3 C 22.8 52.1 16.3 45.7 11.4 49 z"/>
        <path style="fill: #9fa115; stroke: none" d="M 79.3 61 C 74.4 64.2 80.2 70 84.6 67 C 89 63.8 83.4 58.4 79.3 61 z"/>
        <path style="fill: #9fa115; stroke: none" d="M 40.4 74 C 35.4 77.5 40.4 85 45.8 81.8 C 51.7 78.3 45.9 70.3 40.4 74 z"/>
    </g>
    <g transform="translate(380,380) scale(1.2 1.2)">
        <path style="fill: #9fa115; stroke: none" d="M 48 5 L 43 41 L 13 24 L 11 29 L 31 41 L 8 33 L 5 40 L 34 48 L 10 73 L 18 76 L 30 61 L 26 81 L 32 83 L 43 55 L 63 90 C 69.5 84.2 59.7 74.4 57 68 C 64 73 69 85.5 78 78 L 78 77 L 52 57 L 89 55 C 86.6 44.1 72.8 50.1 64 48 L 64 46 L 85 40 L 83 33 L 53 46 L 76 14 L 64 10 L 51 33 L 56 7 L 48 5 z"/>
        <path style="fill: #9fa115; stroke: none" d="M 30.5 20 C 25.7 23.6 31.8 30.8 36.7 27.1 C 42.2 23 35.5 16.3 30.5 20 z"/>
        <path style="fill: #9fa115; stroke: none" d="M 78.3 20.9 C 73.9 22.5 77.2 29.3 81.7 27.2 C 85.9 25.3 82.2 19.4 78.3 20.9 z"/>
        <path style="fill: #9fa115; stroke: none" d="M 11.4 49 C 6 52.8 12.5 60.5 17.7 56.3 C 22.8 52.1 16.3 45.7 11.4 49 z"/>
        <path style="fill: #9fa115; stroke: none" d="M 79.3 61 C 74.4 64.2 80.2 70 84.6 67 C 89 63.8 83.4 58.4 79.3 61 z"/>
        <path style="fill: #9fa115; stroke: none" d="M 40.4 74 C 35.4 77.5 40.4 85 45.8 81.8 C 51.7 78.3 45.9 70.3 40.4 74 z"/>
    </g>    
</svg>
